<?xml version="1.0" encoding="UTF-8" standalone="no"?>
<svg
   version="1.1"
   viewBox="-10 0 300 215.90936"
   id="svg61"
   sodipodi:docname="ufni$E902_icomoon.svg"
   width="300"
   height="215.90936"
   xmlns:inkscape="http://www.inkscape.org/namespaces/inkscape"
   xmlns:sodipodi="http://sodipodi.sourceforge.net/DTD/sodipodi-0.dtd"
   xmlns="http://www.w3.org/2000/svg"
   xmlns:svg="http://www.w3.org/2000/svg">
  <defs
     id="defs65" />
  <sodipodi:namedview
     id="namedview63"
     pagecolor="#ffffff"
     bordercolor="#666666"
     borderopacity="1.0"
     inkscape:showpageshadow="2"
     inkscape:pageopacity="0.0"
     inkscape:pagecheckerboard="0"
     inkscape:deskcolor="#d1d1d1"
     showgrid="false" />
  <path
     fill="currentColor"
     d="M 2.555066,0 H 277.44493 q 4.62555,0 8.59031,4.4271634 Q 290,8.8543269 290,15.324797 q 0,6.470469 -3.13877,10.897633 -3.13876,4.427163 -9.4163,4.427163 h -1.98238 l -25.44053,91.267677 -4.29515,30.64959 q -1.65198,9.87598 -6.11233,17.53838 -4.46035,7.6624 -10.73789,10.72736 l -10.57269,4.42716 -42.29075,21.79527 q -9.58149,3.40551 -18.0066,6.12992 -8.42511,2.72441 -18.00661,2.72441 -9.5815,0 -18.8326,-2.72441 -9.2511,-2.72441 -17.18061,-6.12992 L 51.123348,178.78929 q -6.277533,-3.40551 -10.737885,-8.51377 -4.460353,-5.10827 -6.112335,-13.28149 L 32.290748,154.61017 2.555066,26.22243 q -4.6255506,0 -8.5903083,-4.427164 Q -10,17.368103 -10,10.897633 -10,7.4921228 -6.8612335,3.7460614 -3.722467,0 2.555066,0 Z"
     id="path59"
     style="stroke-width:0.335435" />
</svg>
