<?xml version="1.0" encoding="UTF-8" standalone="no"?>
<svg
   version="1.1"
   viewBox="-10 0 300 200.53648"
   id="svg386"
   sodipodi:docname="un2i$E901_icomoon.svg"
   width="300"
   height="200.53648"
   xmlns:inkscape="http://www.inkscape.org/namespaces/inkscape"
   xmlns:sodipodi="http://sodipodi.sourceforge.net/DTD/sodipodi-0.dtd"
   xmlns="http://www.w3.org/2000/svg"
   xmlns:svg="http://www.w3.org/2000/svg">
  <defs
     id="defs390" />
  <sodipodi:namedview
     id="namedview388"
     pagecolor="#ffffff"
     bordercolor="#666666"
     borderopacity="1.0"
     inkscape:showpageshadow="2"
     inkscape:pageopacity="0.0"
     inkscape:pagecheckerboard="0"
     inkscape:deskcolor="#d1d1d1"
     showgrid="false" />
  <path
     fill="currentColor"
     d="M 28.626611,26.394855 48.583693,138.73391 q 0.64378,4.82833 3.21888,8.53004 2.57511,3.70171 6.11588,5.63304 l 52.145927,24.78541 q 14.48498,6.75966 29.93562,6.75966 15.45064,0 29.93562,-6.75966 l 52.14593,-24.78541 q 3.54077,-1.93133 6.11588,-5.63304 2.5751,-3.70172 3.54077,-8.53005 L 251.37339,26.394855 Z M 140,200.53648 q -9.01288,0 -18.02575,-2.09228 -9.01288,-2.09227 -17.70386,-6.27682 L 52.446353,167.70386 q -7.08155,-3.54077 -11.74893,-10.30043 -4.667379,-6.75966 -6.276822,-15.77253 L 12.854078,19.635195 q -0.321887,-1.60944 0.160943,-3.37983 0.482833,-1.77038 1.4485,-3.05794 0.965664,-1.28755 2.414163,-2.09227 1.448497,-0.80472 3.05794,-0.80472 H 260.06438 q 1.60944,0 3.05794,0.80472 1.4485,0.80472 2.41416,2.09227 1.28755,1.28756 1.60944,3.05794 0.32189,1.77039 0,3.37983 L 245.5794,141.63091 q -1.28755,9.01286 -6.11588,15.77252 -4.82833,6.75967 -11.58798,10.30043 l -52.14593,24.46352 q -8.69098,4.18455 -17.70386,6.27682 -9.01287,2.09228 -18.02575,2.09228 z M 278.09012,26.716745 H 1.909871 q -4.828326,0 -8.369098,-3.86267 Q -10,18.991415 -10,13.519315 -10,7.725325 -6.459227,3.862662 -2.918455,0 1.909871,0 H 278.09012 q 5.15022,0 8.53005,3.862662 Q 290,7.725325 290,13.519315 q 0,5.4721 -3.37983,9.33476 -3.37983,3.86267 -8.53005,3.86267 z"
     id="path384"
     style="stroke-width:0.32189" />
</svg>
