<?xml version="1.0" encoding="UTF-8" standalone="no"?>
<!-- Created with Inkscape (http://www.inkscape.org/) -->

<svg
   version="1.1"
   id="svg243"
   width="300"
   height="365.39972"
   viewBox="0 0 300.00001 365.39972"
   xmlns="http://www.w3.org/2000/svg"
   xmlns:svg="http://www.w3.org/2000/svg">
  <defs
     id="defs247" />
  <g
     id="g249"
     transform="translate(-19.615122,-6.3070348)">
    <path
       style="fill:#000000;stroke-width:2.7641"
       d="M 146.98196,368.37229 C 66.627867,342.02467 -8.1802957,154.77902 29.786544,75.030935 65.910456,-0.84615389 230.56189,-18.950617 290.74213,46.337226 375.63234,138.43224 256.89575,404.41241 146.98196,368.37229 Z m 52.89116,-27.42977 c 28.64539,-14.96455 58.47835,-59.31217 78.19573,-116.2405 C 328.55598,78.934938 285.86292,20.569687 137.887,33.060749 45.26374,40.879338 19.223901,104.19962 60.209211,221.94744 95.336738,322.86617 148.22228,367.92522 199.87312,340.94252 Z M 131.67161,228.56467 c -12.20463,-12.20465 -6.77544,-28.46597 22.08356,-66.14396 25.60593,-33.4308 28.00007,-27.90023 6.54556,15.12048 -10.16959,20.39205 -14.69061,32.97991 -15.54488,43.2816 -1.35291,16.3143 -3.33754,17.48857 -13.08424,7.74188 z m 54.17241,-5.47718 c -2.44533,-2.94644 -2.50747,-5.43979 -0.2412,-9.67439 5.88414,-10.99458 21.88692,-3.93787 18.1034,7.98299 -2.11235,6.65541 -12.89505,7.67644 -17.8622,1.6914 z m -77.96076,-85.35151 c 11.17843,-12.01343 31.74767,-18.83833 65.20276,-21.63436 16.81796,-1.40557 39.90696,-3.58814 51.30892,-4.85016 24.56916,-2.71941 23.70696,-3.05917 16.26037,6.40762 -9.262,11.77471 -17.06402,13.53464 -68.77847,15.51455 -36.928,1.41381 -50.98766,2.99777 -59.42836,6.69519 -11.05643,4.84325 -11.05643,4.84325 -4.56522,-2.13284 z"
       id="path255" />
  </g>
</svg>
